# xmcd
#
# Track frame offsets: 
#        150
#        14407
#        35134
#        51300
#        62038
#        79639
#        93723
#        107157
#        117489
#        128564
#        145030
#        156180
#        165374
#        175486
#        197409
#        215552
#        225984
#        247289
#        274465
#
# Disc length: 4001 seconds
#
# Revision: 0
# Processed by: cddbd v1.5.2PL0 Copyright (c) Steve Scherf et al.
# Submitted via: ExactAudioCopy v1.3
#
DISCID=140f9f13
DTITLE=Various Artist - Ons Sal Juklle Nooit Vergeet Nie - Vir Ewig I
DTITLE=n Ons Harte
DYEAR=2008
DGENRE=Country
TTITLE0=Gé Korsten - Liefling
TTITLE1=Bles Bridges - Sproetjies, Kom Terug
TTITLE2=Janita Claassen - Roibos
TTITLE3=Gene Rockwell - Save the Last Dance For Me
TTITLE4=Joe Dolan - Hush, Hush Maria
TTITLE5=Sias Reinecke - Wie Sal Kom Nagsé
TTITLE6=John D3enver - Annie's Song
TTITLE7=Jim Reeves - Peace In the Valley
TTITLE8=Gert Potgieter - Boetie Sy's 'n Perskeblom
TTITLE9=Cora Marie - Briefie Uit die See
TTITLE10=Patsy Cline - Cry Not For Me
TTITLE11=Virginia Lee - Sailor Boy
TTITLE12=Charles Jacobie - In die Skadu Van Ou Tafelberg
TTITLE13=Deon Roberts - Ek Mis Jou Meer As Ooit
TTITLE14=Johannes Kerkorrel - Hillbrow
TTITLE15=Worsie Visser - Lekker Ou Jan
TTITLE16=Bill Flynn - Tenors Racket
TTITLE17=Tolla Van De Merwe - "Swingry" By die Merrygoround
TTITLE18=Hansie Roodt - Country Kitaar Keurspel: Jambalaya - Do What Yo
TTITLE18=u Do, Do Well - Oh! Lonesome Me - Deep In the Heart Of Texas - O
TTITLE18=h Suzanna
EXTD=
EXTT0=
EXTT1=
EXTT2=
EXTT3=
EXTT4=
EXTT5=
EXTT6=
EXTT7=
EXTT8=
EXTT9=
EXTT10=
EXTT11=
EXTT12=
EXTT13=
EXTT14=
EXTT15=
EXTT16=
EXTT17=
EXTT18=
PLAYORDER=
